<svg width="31" height="35" viewBox="0 0 31 35" fill="none" xmlns="http://www.w3.org/2000/svg">
<path fill-rule="evenodd" clip-rule="evenodd" d="M8.56964 32.6666V34.1666C8.56964 34.6269 8.94274 35 9.40297 35H23.327C27.0089 35 29.9936 32.0152 29.9936 28.3333V19.9285C29.9936 19.4683 29.6205 19.0952 29.1603 19.0952H22.4579V21.4285H27.6603V28.3333C27.6603 30.7265 25.7202 32.6666 23.327 32.6666H10.903L8.56964 32.6666Z" fill="white"/>
<path fill-rule="evenodd" clip-rule="evenodd" d="M6.66667 7.33333H13.6286C15.7505 7.33333 17.5162 8.85846 17.8893 10.8723C19.3594 12.0952 20.2952 13.9383 20.2952 16V30.3333V32.6667L17.9619 32.6667L17.9619 32.6667H9.66103C9.65933 32.6667 9.65763 32.6667 9.65593 32.6667H6.66666C4.27343 32.6667 2.33333 30.7266 2.33333 28.3333V11.6667C2.33333 9.27343 4.27343 7.33333 6.66667 7.33333ZM0 11.6667C0 7.98477 2.98477 5 6.66667 5H13.6286C17.3105 5 20.2953 7.98477 20.2953 11.6667V32.6667V35H17.9619H6.66666C2.98476 35 0 32.0152 0 28.3333V11.6667Z" fill="white"/>
<path d="M19.1308 10.6666V29.1465C19.1308 31.5363 20.9168 33.549 23.2897 33.8333V33.8333" stroke="white" stroke-width="2.33333"/>
<rect x="4.21503" y="13.3334" width="11.8112" height="2.33333" rx="0.833333" fill="white"/>
<rect x="4.21503" y="19" width="9.64857" height="2.33333" rx="0.833333" fill="#FEF202"/>
<rect x="4.21503" y="24.6666" width="5.82241" height="2.33333" rx="0.833333" fill="white"/>
<path d="M26.066 17.18C22.79 17.18 21.152 16.124 21.152 14.012V8.468C21.152 6.236 22.79 5.12 26.066 5.12C27.182 5.12 28.25 5.234 29.27 5.462V6.758C28.118 6.47 27.062 6.326 26.102 6.326C25.634 6.326 25.226 6.356 24.878 6.416C24.53 6.464 24.194 6.554 23.87 6.686C23.174 6.986 22.826 7.574 22.826 8.45V13.922C22.826 15.266 23.942 15.938 26.174 15.938C27.134 15.938 28.19 15.794 29.342 15.506V16.838C28.322 17.066 27.23 17.18 26.066 17.18Z" fill="#FEF202"/>
</svg>
